# xmcd CD database file
#
# Track frame offsets:
#	150
#	11613
#	25210
#	35384
#	50167
#	62264
#	77324
#	89199
#	104659
#	122054
#	135819
#	146762
#	165409
#	179204
#	191077
#	204139
#	216732
#
# Disc length: 3071 seconds
#
# Revision: 2
# Processed by: cddbd v1.5.1PL0 Copyright (c) Steve Scherf et al.
# Submitted via: CDex 1.51
#
DISCID=f30bfd11
DTITLE=Stompy Jones - Stompy Jones
DYEAR=2003
DGENRE=Swing
TTITLE0=Oh Marie
TTITLE1=Mary Had A Little Lamb
TTITLE2=Whistle Stop
TTITLE3=A Woman's Intuition
TTITLE4=Close Shave
TTITLE5=Without You Here
TTITLE6=You Can Depend On Me
TTITLE7=That's Earl, Brother
TTITLE8=Mondine
TTITLE9=That Wig's Gotta Go
TTITLE10=Boogie Woogie On A Saturday Night
TTITLE11=Can't Find My Baby
TTITLE12=Rug Cutter's Swing
TTITLE13=Dream
TTITLE14=Knock Me A Kiss
TTITLE15=Juke Box Judy
TTITLE16=Along The Navajo Trail
EXTD=Jewel Records No. JR-0403\nwww.stompyjones.com YEAR: 2003
EXTT0=
EXTT1=
EXTT2=
EXTT3=
EXTT4=
EXTT5=
EXTT6=
EXTT7=
EXTT8=
EXTT9=
EXTT10=
EXTT11=
EXTT12=
EXTT13=
EXTT14=
EXTT15=
EXTT16=
PLAYORDER=
